HIERARCHY
ROOT Hips
{
    OFFSET   0.000000   0.000000   0.000000
    CHANNELS 6 Xposition Yposition Zposition Zrotation Xrotation Yrotation
    JOINT Chest
    {
        OFFSET   0.000000   8.007240   0.000000
        CHANNELS 3 Zrotation Xrotation Yrotation
        JOINT Chest2
        {
            OFFSET   0.000000  22.077100   0.000000
            CHANNELS 3 Zrotation Xrotation Yrotation
            JOINT Neck
            {
                OFFSET   0.000000  23.254800   0.000000
                CHANNELS 3 Zrotation Xrotation Yrotation
                JOINT Head
                {
                    OFFSET   0.000000  14.370000   1.956600
                    CHANNELS 3 Zrotation Xrotation Yrotation
                    End Site
                    {
                        OFFSET   0.000000  19.566000   0.000000
                    }
                }
            }
            JOINT LeftCollar
            {
                OFFSET   3.911900  19.017000  -0.467064
                CHANNELS 3 Zrotation Xrotation Yrotation
                JOINT LeftShoulder
                {
                    OFFSET  10.383700   0.000000   0.000000
                    CHANNELS 3 Zrotation Xrotation Yrotation
                    JOINT LeftElbow
                    {
                        OFFSET  26.662100   0.001476   0.000517
                        CHANNELS 3 Zrotation Xrotation Yrotation
                        JOINT LeftWrist
                        {
                            OFFSET  28.869000  -0.000025  -0.000106
                            CHANNELS 3 Zrotation Xrotation Yrotation
                            JOINT LeftFinger0
                            {
                                OFFSET   2.044660  -2.323460   3.252850
                                CHANNELS 3 Zrotation Xrotation Yrotation
                                JOINT LeftFinger01
                                {
                                    OFFSET   3.088130   0.000000   0.000000
                                    CHANNELS 3 Zrotation Xrotation Yrotation
                                    JOINT LeftFinger02
                                    {
                                        OFFSET   2.639460   0.000000   0.000000
                                        CHANNELS 3 Zrotation Xrotation Yrotation
                                        End Site
                                        {
                                            OFFSET   2.582190   0.000000   0.000000
                                        }
                                    }
                                }
                            }
                            JOINT LeftFinger1
                            {
                                OFFSET   8.364480   0.000000   3.252850
                                CHANNELS 3 Zrotation Xrotation Yrotation
                                JOINT LeftFinger11
                                {
                                    OFFSET   4.646930   0.000000   0.000000
                                    CHANNELS 3 Zrotation Xrotation Yrotation
                                    JOINT LeftFinger12
                                    {
                                        OFFSET   2.323460   0.000000   0.000000
                                        CHANNELS 3 Zrotation Xrotation Yrotation
                                        End Site
                                        {
                                            OFFSET   2.273050   0.000000   0.000000
                                        }
                                    }
                                }
                            }
                            JOINT LeftFinger2
                            {
                                OFFSET   8.364490   0.000015   1.078090
                                CHANNELS 3 Zrotation Xrotation Yrotation
                                JOINT LeftFinger21
                                {
                                    OFFSET   5.111620   0.000000   0.000000
                                    CHANNELS 3 Zrotation Xrotation Yrotation
                                    JOINT LeftFinger22
                                    {
                                        OFFSET   2.788160   0.000016   0.000000
                                        CHANNELS 3 Zrotation Xrotation Yrotation
                                        End Site
                                        {
                                            OFFSET   2.727660   0.000000   0.000000
                                        }
                                    }
                                }
                            }
                            JOINT LeftFinger3
                            {
                                OFFSET   7.899780   0.000017  -1.078090
                                CHANNELS 3 Zrotation Xrotation Yrotation
                                JOINT LeftFinger31
                                {
                                    OFFSET   4.646930   0.000000   0.000000
                                    CHANNELS 3 Zrotation Xrotation Yrotation
                                    JOINT LeftFinger32
                                    {
                                        OFFSET   2.323470   0.000000   0.000000
                                        CHANNELS 3 Zrotation Xrotation Yrotation
                                        End Site
                                        {
                                            OFFSET   2.273050   0.000000   0.000000
                                        }
                                    }
                                }
                            }
                            JOINT LeftFinger4
                            {
                                OFFSET   7.435090   0.000000  -3.252850
                                CHANNELS 3 Zrotation Xrotation Yrotation
                                JOINT LeftFinger41
                                {
                                    OFFSET   3.717550   0.000000   0.000000
                                    CHANNELS 3 Zrotation Xrotation Yrotation
                                    JOINT LeftFinger42
                                    {
                                        OFFSET   1.858770   0.000000   0.000000
                                        CHANNELS 3 Zrotation Xrotation Yrotation
                                        End Site
                                        {
                                            OFFSET   1.818440   0.000000   0.000000
                                        }
                                    }
                                }
                            }
                        }
                    }
                }
            }
            JOINT RightCollar
            {
                OFFSET  -3.911900  19.017000  -0.467063
                CHANNELS 3 Zrotation Xrotation Yrotation
                JOINT RightShoulder
                {
                    OFFSET -10.383700   0.000019   0.000000
                    CHANNELS 3 Zrotation Xrotation Yrotation
                    JOINT RightElbow
                    {
                        OFFSET -26.662100   0.001175   0.000102
                        CHANNELS 3 Zrotation Xrotation Yrotation
                        JOINT RightWrist
                        {
                            OFFSET -28.869000   0.000016  -0.000079
                            CHANNELS 3 Zrotation Xrotation Yrotation
                            JOINT RightFinger0
                            {
                                OFFSET  -2.044660  -2.323490   3.252850
                                CHANNELS 3 Zrotation Xrotation Yrotation
                                JOINT RightFinger01
                                {
                                    OFFSET  -3.088140   0.000000   0.000000
                                    CHANNELS 3 Zrotation Xrotation Yrotation
                                    JOINT RightFinger02
                                    {
                                        OFFSET  -2.639460   0.000000   0.000000
                                        CHANNELS 3 Zrotation Xrotation Yrotation
                                        End Site
                                        {
                                            OFFSET  -2.582190   0.000000   0.000000
                                        }
                                    }
                                }
                            }
                            JOINT RightFinger1
                            {
                                OFFSET  -8.364480   0.000000   3.252850
                                CHANNELS 3 Zrotation Xrotation Yrotation
                                JOINT RightFinger11
                                {
                                    OFFSET  -4.646930   0.000000   0.000000
                                    CHANNELS 3 Zrotation Xrotation Yrotation
                                    JOINT RightFinger12
                                    {
                                        OFFSET  -2.323470   0.000000   0.000000
                                        CHANNELS 3 Zrotation Xrotation Yrotation
                                        End Site
                                        {
                                            OFFSET  -2.273050   0.000000   0.000000
                                        }
                                    }
                                }
                            }
                            JOINT RightFinger2
                            {
                                OFFSET  -8.364480   0.000000   1.078090
                                CHANNELS 3 Zrotation Xrotation Yrotation
                                JOINT RightFinger21
                                {
                                    OFFSET  -5.111620   0.000000   0.000000
                                    CHANNELS 3 Zrotation Xrotation Yrotation
                                    JOINT RightFinger22
                                    {
                                        OFFSET  -2.788160   0.000000   0.000000
                                        CHANNELS 3 Zrotation Xrotation Yrotation
                                        End Site
                                        {
                                            OFFSET  -2.727660   0.000000   0.000000
                                        }
                                    }
                                }
                            }
                            JOINT RightFinger3
                            {
                                OFFSET  -7.899780   0.000000  -1.078090
                                CHANNELS 3 Zrotation Xrotation Yrotation
                                JOINT RightFinger31
                                {
                                    OFFSET  -4.646930   0.000000   0.000000
                                    CHANNELS 3 Zrotation Xrotation Yrotation
                                    JOINT RightFinger32
                                    {
                                        OFFSET  -2.323470   0.000000   0.000000
                                        CHANNELS 3 Zrotation Xrotation Yrotation
                                        End Site
                                        {
                                            OFFSET  -2.273050   0.000000   0.000000
                                        }
                                    }
                                }
                            }
                            JOINT RightFinger4
                            {
                                OFFSET  -7.435090   0.000000  -3.252850
                                CHANNELS 3 Zrotation Xrotation Yrotation
                                JOINT RightFinger41
                                {
                                    OFFSET  -3.717550   0.000000   0.000000
                                    CHANNELS 3 Zrotation Xrotation Yrotation
                                    JOINT RightFinger42
                                    {
                                        OFFSET  -1.858770   0.000000   0.000000
                                        CHANNELS 3 Zrotation Xrotation Yrotation
                                        End Site
                                        {
                                            OFFSET  -1.818440   0.000000   0.000000
                                        }
                                    }
                                }
                            }
                        }
                    }
                }
            }
        }
    }
    JOINT LeftHip
    {
        OFFSET   9.783040   0.000000   0.000000
        CHANNELS 3 Zrotation Xrotation Yrotation
        JOINT LeftKnee
        {
            OFFSET   0.000032 -41.789100  -0.002222
            CHANNELS 3 Zrotation Xrotation Yrotation
            JOINT LeftAnkle
            {
                OFFSET   0.000087 -41.133200  -0.000135
                CHANNELS 3 Zrotation Xrotation Yrotation
                JOINT LeftToe
                {
                    OFFSET   0.000000  -6.358960  14.674500
                    CHANNELS 3 Zrotation Xrotation Yrotation
                    End Site
                    {
                        OFFSET   0.000000   0.000000   3.913200
                    }
                }
            }
        }
    }
    JOINT RightHip
    {
        OFFSET  -9.783040   0.000000   0.000000
        CHANNELS 3 Zrotation Xrotation Yrotation
        JOINT RightKnee
        {
            OFFSET   0.000047 -41.789100  -0.000896
            CHANNELS 3 Zrotation Xrotation Yrotation
            JOINT RightAnkle
            {
                OFFSET  -0.000117 -41.133300  -0.000248
                CHANNELS 3 Zrotation Xrotation Yrotation
                JOINT RightToe
                {
                    OFFSET   0.000000  -6.358970  14.674500
                    CHANNELS 3 Zrotation Xrotation Yrotation
                    End Site
                    {
                        OFFSET   0.000000   0.000000   3.913200
                    }
                }
            }
        }
    }
}
MOTION
Frames: 6
Frame Time:   0.016667
 -2.824380  89.455000   1.579270  -1.394400 -15.754500   6.786950   2.106010  10.537100   1.057800   4.117500  21.105100   1.759240  -5.311280   2.116130   0.196663  -8.757840   4.180890  11.201200 -10.605600  -0.377969  -2.788660 -59.391500  31.849800 -45.620100   5.585700  -8.412990 -62.991700  -8.880370 -35.880100   0.361699  36.942700  33.564500 -77.215300  17.646000  -0.001542   0.004943  13.823000   0.008133   0.002607 -14.924000   0.910948  -3.436140 -12.233200   0.007348  -0.003917  -8.563230   0.005239   0.002800 -19.780200  -3.089910   8.529730 -20.003700   0.002552  -0.002436 -13.322500   0.002387  -0.001131 -24.183300  -4.855340  10.674400 -24.637200   0.005179   0.001864 -16.408300   0.000550   0.003320 -27.335500 -12.159500  22.169600 -44.589400  -0.001146   0.002068 -29.696600   0.004671   0.001416   2.942430  -2.856930  17.508900  56.903900  14.292400  32.431500 -28.131600  -5.447360  74.491000 -39.285200  30.853100  37.513900 -57.755600  45.893900  91.980100 -13.233600   0.014722   0.001411 -11.616800   0.008566  -0.009726   9.099340   3.339660  19.883800   7.926770   0.001773  -0.001334   5.548740   0.001185  -0.012699  12.894200   1.722630   7.504530  13.001900   0.000613  -0.011906   8.659260   0.000745  -0.009867  16.358200  -0.051193  -0.172828  16.358300   0.009155  -0.009899  10.894700   0.000953  -0.004696  16.518400  -3.957480 -13.117100  25.454300   0.004891  -0.010000  16.952500  -0.004017  -0.005787   4.436070  17.902900   3.065150   0.792578   0.001760   6.443690  -3.247030  -1.611750  -2.249470   0.000000   0.000000  -0.000000   3.807530  12.512900  -7.088450   0.396229   7.650950 -10.567100  -3.429350  -4.342420  -3.993720  -0.000000   0.000000   0.000000
 -2.804100  89.456000   1.673520  -1.420090 -15.628100   6.724050   2.106270  10.445700   1.043540   4.120860  20.922000   1.732720  -5.264530   2.039290   0.187870  -8.678440   4.031070  11.151100 -10.590700  -0.326171  -2.708950 -59.710700  31.471200 -45.257200   5.538260  -8.127280 -62.856500  -9.011120 -36.009700   0.191909  37.036400  33.471300 -77.068000  17.655800  -0.001561   0.004978  13.827900   0.008509   0.002608 -14.956000   0.979529  -3.676320 -12.262700   0.007342  -0.003915  -8.583920   0.005255   0.002800 -19.844000  -3.008520   8.266930 -20.062000   0.002848  -0.002400 -13.361300   0.002543  -0.001097 -24.156600  -4.852200  10.679900 -24.610400   0.005472   0.001935 -16.390500   0.000567   0.003520 -27.272300 -12.150800  22.209200 -44.498600  -0.001149   0.002072 -29.636100   0.004674   0.001410   2.968440  -2.885540  17.458000  56.952100  14.305600  32.346500 -28.048300  -5.424370  74.371200 -39.204100  30.984400  37.464100 -57.652200  45.668800  91.479200 -12.466000   0.015001   0.001488 -11.233000   0.008713  -0.009968   9.321110   3.350780  19.590800   8.099850   0.001738  -0.001642   5.669900   0.001210  -0.012779  12.920500   1.670210   7.239940  13.025900   0.000593  -0.011947   8.675260   0.000813  -0.009870  16.416900  -0.064301  -0.215033  16.417000   0.009527  -0.010218  10.933700   0.000996  -0.004700  16.410500  -3.992560 -13.304700  25.314600   0.004838  -0.010568  16.859500  -0.004159  -0.005842   4.433870  17.846600   3.040360   0.768848   0.001634   6.470980  -3.237160  -1.686820  -2.190530   0.000000   0.000000  -0.000000   3.814730  12.460200  -7.070170   0.386170   7.626460 -10.542600  -3.426910  -4.389730  -3.989130  -0.000000   0.000000   0.000000
 -2.787640  89.458200   1.771270  -1.451740 -15.487700   6.649580   2.106760  10.347600   1.019410   4.126460  20.724900   1.686370  -5.215440   1.953160   0.178251  -8.594990   3.862620  11.104200 -10.553900  -0.270829  -2.570230 -60.126500  31.084000 -44.848700   5.535330  -7.743220 -62.731400  -8.956680 -36.003800   0.112504  37.270300  33.548100 -76.984200  18.507100   0.002198   0.001690  14.253600   0.008880  -0.005193 -15.221000   1.120420  -4.108040 -12.487300   0.007346  -0.003915  -8.741120   0.005252   0.002814 -20.105600  -2.905950   7.868180 -20.311800   0.003004  -0.002368 -13.527600   0.002712  -0.001064 -24.281000  -4.867500  10.652600 -24.742800   0.005750   0.002004 -16.478700   0.000589   0.003720 -27.382300 -12.166200  22.140500 -44.656700  -0.001154   0.002065 -29.741400   0.004664   0.001403   3.003130  -2.919910  17.415700  57.016100  14.295400  32.222300 -27.895000  -5.410240  74.240800 -39.140900  30.964200  37.323500 -57.489800  45.301800  90.642200 -10.677100   0.015251   0.001531 -10.338500   0.008866  -0.010194   9.802490   3.465900  19.318700   8.501540   0.007374  -0.004087   5.951080   0.004902  -0.012862  13.072600   1.674140   7.065380  13.181300   0.005602  -0.011992   8.778760   0.000880  -0.009869  16.590200  -0.043797  -0.153225  16.590000   0.009929  -0.010563  11.048900   0.001032  -0.004704  16.487900  -4.107550 -13.568800  25.469200   0.004784  -0.011137  16.962400  -0.004305  -0.005891   4.441730  17.776000   3.006850   0.737509   0.018726   6.500510  -3.229180  -1.769730  -2.117250  -0.000000   0.000000   0.000000   3.823440  12.403800  -7.073640   0.373187   7.588850 -10.492500  -3.421470  -4.429180  -3.968570   0.000000   0.000000  -0.000000
 -2.773450  89.460900   1.871790  -1.490870 -15.335000   6.555180   2.108400  10.243800   0.986713   4.135970  20.516400   1.622470  -5.164380   1.855100   0.167632  -8.508170   3.670440  11.065400 -10.501900  -0.213089  -2.394170 -60.599800  30.644300 -44.381200   5.557880  -7.277640 -62.581800  -8.730420 -35.961800   0.091897  37.685700  33.622000 -76.892100  19.343700   0.010499  -0.003592  14.671900   0.009252  -0.018952 -15.765000   1.302370  -4.606200 -12.944100   0.007354  -0.003915  -9.060840   0.005245   0.002843 -20.563900  -2.799250   7.412140 -20.747800   0.003485  -0.002335 -13.818000   0.002889  -0.001029 -24.561700  -4.902450  10.593000 -25.022000   0.006012   0.002070 -16.664600   0.000603   0.003919 -27.492400 -12.181500  22.071800 -44.814800  -0.001162   0.002054 -29.846700   0.004654   0.001395   3.044810  -2.961000  17.375200  57.107300  14.255600  32.059400 -27.679900  -5.403160  74.072400 -39.147900  30.787600  37.158700 -57.385900  44.945800  89.862800  -8.671310   0.015484   0.001545  -9.335650   0.009008  -0.010407  10.566500   3.715730  19.021400   9.157980   0.016642  -0.008178   6.410590   0.010777  -0.012907  13.491400   1.697450   6.986260  13.595700   0.012552  -0.012016   9.054750   0.000947  -0.009862  16.966500   0.011820   0.010868  16.965900   0.010237  -0.010757  11.299300   0.001061  -0.004718  16.759400  -4.227840 -13.737200  25.900500   0.004725  -0.011692  17.249700  -0.004455  -0.005940   4.453200  17.696800   2.976020   0.701035   0.041955   6.532470  -3.220990  -1.856180  -2.031420  -0.000000   0.000000  -0.000000   3.824510  12.342500  -7.076980   0.360956   7.538020 -10.430300  -3.413940  -4.461430  -3.930030   0.000000   0.000000   0.000000
 -2.760610  89.463300   1.974800  -1.537660 -15.170300   6.439700   2.112270  10.135400   0.944903   4.151630  20.298100   1.539720  -5.112630   1.744680   0.156061  -8.419990   3.453910  11.040300 -10.438300  -0.157412  -2.198330 -61.125600  30.096200 -43.825200   5.600110  -6.702390 -62.388200  -8.395660 -35.545100   0.112051  38.058000  33.492900 -76.583100  19.063800   0.024908  -0.008283  14.531900   0.009633  -0.034987 -16.541800   1.509230  -5.062600 -13.592300   0.007361  -0.003915  -9.514570   0.005235   0.002879 -21.146700  -2.705040   6.950710 -21.315000   0.005668  -0.002301 -14.195800   0.003066  -0.000993 -24.950900  -4.952340  10.514400 -25.355900   0.006250   0.002132 -16.887000   0.000605   0.004118 -27.424500 -12.171900  22.114000 -44.717400  -0.001178   0.002045 -29.781800   0.004661   0.001385   3.092230  -3.011530  17.330800  57.217200  14.207500  31.864900 -27.374600  -5.407930  73.845600 -39.295600  30.415700  36.989900 -57.508400  44.780500  89.510600  -7.143300   0.015759  -0.005769  -8.571640   0.009158  -0.010653  11.735800   4.077840  18.712100  10.157000   0.025533  -0.013682   7.109900   0.015928  -0.012782  14.216700   1.787240   6.986520  14.326800   0.015306  -0.011912   9.541690   0.001016  -0.009765  17.623200   0.100381   0.278493  17.618700   0.010343  -0.010695  11.734100   0.001084  -0.004880  17.195200  -4.290670 -13.597300  26.556500   0.004660  -0.012345  17.686600  -0.004607  -0.005966   4.471460  17.620300   2.960340   0.658936   0.046123   6.560800  -3.209710  -1.934290  -1.938050   0.000000   0.000000   0.000000   3.816120  12.279700  -7.074220   0.361587   7.470140 -10.365700  -3.404520  -4.485850  -3.878860   0.000000   0.000000   0.000000
 -2.748310  89.466300   2.080500  -1.591410 -14.997700   6.301180   2.118120  10.022800   0.895814   4.172480  20.071500   1.441940  -5.058880   1.619600   0.143350  -8.328520   3.208100  11.029000 -10.375300  -0.098556  -1.988600 -61.632300  29.483900 -43.230300   5.655790  -6.093440 -62.148800  -7.881290 -34.758500   0.253128  38.297100  33.198800 -76.001000  17.608900   0.034775  -0.010980  13.804400   0.010013  -0.045063 -17.418400   1.717430  -5.461210 -14.322800   0.007366  -0.003915 -10.025900   0.005229   0.002922 -21.797400  -2.623060   6.515430 -21.951900   0.008214  -0.002264 -14.620000   0.003255  -0.000954 -25.406400  -5.009480  10.420900 -25.784300   0.006490   0.002190 -17.172300   0.000605   0.004315 -27.356700 -12.162200  22.156100 -44.620000  -0.001189   0.002038 -29.716900   0.004668   0.001375   3.142730  -3.059930  17.285500  57.351500  14.129900  31.626100 -27.047800  -5.412810  73.553400 -39.507700  29.906000  36.765100 -57.629900  44.734900  89.411400  -5.800140   0.015919  -0.013082  -7.900060   0.009241  -0.010795  13.231900   4.512350  18.322500  11.428300   0.030793  -0.017237   7.999820   0.018871  -0.012261  15.206000   1.930320   6.987000  15.325300   0.016118  -0.011510  10.206700   0.001086  -0.009451  18.530500   0.216584   0.603255  18.531500   0.010358  -0.010290  12.342000   0.001098  -0.005267  17.857000  -4.318340 -13.165900  27.528600   0.004588  -0.012728  18.334000  -0.004764  -0.006046   4.494340  17.537000   2.954630   0.617185   0.050751   6.593580  -3.199530  -2.021430  -1.836530  -0.000000   0.000000   0.000000   3.805230  12.216500  -7.065090   0.371819   7.388320 -10.298500  -3.393910  -4.502930  -3.813020  -0.000000   0.000000   0.000000
